<svg width="934" height="280" viewBox="0 0 934 280" fill="none" xmlns="http://www.w3.org/2000/svg">
<g clip-path="url(#clip0)">
<path d="M171.106 86.1964L208.616 129.578C208.912 129.921 209.277 130.198 209.688 130.389C210.098 130.581 210.545 130.682 210.998 130.688C211.451 130.693 211.899 130.602 212.315 130.421C212.73 130.239 213.101 129.971 213.405 129.635L230.849 110.481C231.37 109.905 231.663 109.159 231.673 108.383C231.684 107.606 231.411 106.852 230.906 106.263L171.106 37L111.421 106.149C110.887 106.736 110.597 107.504 110.607 108.298C110.618 109.091 110.929 109.851 111.478 110.424L128.865 129.578C129.178 129.908 129.556 130.169 129.975 130.346C130.394 130.523 130.845 130.612 131.3 130.606C131.754 130.601 132.203 130.502 132.618 130.315C133.033 130.128 133.405 129.858 133.71 129.521L171.106 86.1964Z" fill="#00BFE9"/>
<path d="M103.44 115.383L65.4171 73.4839L1 139.896L65.5311 208.361L96.1434 172.96C96.6767 172.372 96.9674 171.604 96.9568 170.811C96.9462 170.017 96.6352 169.258 96.0864 168.684L78.6995 149.53C78.3907 149.193 78.0142 148.924 77.5945 148.742C77.1748 148.56 76.7214 148.469 76.264 148.475C75.8066 148.48 75.3555 148.582 74.9402 148.774C74.5249 148.965 74.1548 149.243 73.854 149.587L64.505 160.418L45.4649 140.181L64.619 120.457L82.2339 139.896L104.01 163.896L171.107 237.89L238.203 163.896L259.979 139.896L277.594 120.457L296.748 140.181L277.708 160.418L268.416 149.644C268.121 149.301 267.756 149.025 267.345 148.833C266.934 148.642 266.488 148.54 266.035 148.535C265.582 148.529 265.133 148.621 264.718 148.802C264.303 148.983 263.931 149.251 263.628 149.587L246.184 168.798C245.651 169.368 245.35 170.117 245.34 170.897C245.329 171.677 245.61 172.433 246.127 173.017L276.682 208.361L341.213 139.896L276.796 73.4839L238.773 115.383L217.054 139.383L171.107 190.062L125.16 139.383" fill="#00BFE9"/>
<path d="M400.448 131.486H420.624V110.686H430.608C448.704 110.686 461.912 101.638 461.912 84.4778V84.2698C461.912 68.1498 450.056 58.6858 431.648 58.6858H400.448V131.486ZM420.624 94.8778V75.6378H430.088C437.368 75.6378 441.736 78.9658 441.736 85.2058V85.4138C441.736 91.1338 437.368 94.8778 430.192 94.8778H420.624ZM483.877 132.734C491.261 132.734 496.565 129.926 500.413 125.662V131.486H519.965V99.1418C519.965 91.2378 518.197 85.4138 513.933 81.2538C509.461 76.7818 502.597 74.3898 492.509 74.3898C482.837 74.3898 476.077 76.1578 469.733 78.7578L473.789 92.6938C478.781 90.7178 483.357 89.5738 489.285 89.5738C496.877 89.5738 500.517 92.9018 500.517 98.7258V99.6618C497.293 98.5178 492.197 97.4778 486.997 97.4778C473.789 97.4778 464.949 103.51 464.949 115.158V115.366C464.949 126.598 473.165 132.734 483.877 132.734ZM490.949 120.358C486.893 120.358 483.981 118.07 483.981 114.222V114.014C483.981 109.854 487.309 107.046 493.029 107.046C495.941 107.046 498.749 107.67 500.725 108.502V111.102C500.725 116.718 496.669 120.358 490.949 120.358ZM530.015 131.486H549.775V101.014C549.775 94.8778 553.311 91.5498 558.095 91.5498C562.775 91.5498 565.999 94.8778 565.999 101.014V131.486H585.759V94.6698C585.759 81.8778 578.583 73.9738 566.623 73.9738C558.615 73.9738 553.415 78.4458 549.775 83.1258V75.2218H530.015V131.486ZM618.705 132.734C627.129 132.734 632.017 128.678 635.865 123.998V131.486H655.625V55.5658H635.865V82.0858C632.121 77.8218 627.129 73.9738 618.601 73.9738C605.289 73.9738 593.849 85.1018 593.849 103.406V103.614C593.849 121.606 605.393 132.734 618.705 132.734ZM624.737 116.198C618.393 116.198 613.193 110.894 613.193 103.406V103.198C613.193 95.7098 618.393 90.5098 624.737 90.5098C631.081 90.5098 636.177 95.8138 636.177 103.198V103.406C636.177 110.894 631.081 116.198 624.737 116.198ZM694.082 132.838C705.314 132.838 713.114 128.262 718.522 121.398L707.602 112.35C703.546 116.302 699.802 118.07 695.122 118.07C688.986 118.07 684.514 114.95 682.954 108.814H720.602C720.706 107.462 720.706 106.006 720.706 104.758C720.706 88.2218 711.762 73.9738 692.314 73.9738C675.674 73.9738 663.922 86.9738 663.922 103.406V103.614C663.922 121.086 676.402 132.838 694.082 132.838ZM682.642 98.7258C683.682 92.5898 687.218 88.5338 692.418 88.5338C697.826 88.5338 701.466 92.4858 702.194 98.7258H682.642ZM729.179 131.486H748.939V100.91C748.939 94.7738 752.267 91.5498 756.947 91.5498C761.627 91.5498 764.643 94.7738 764.643 100.91V131.486H784.403V100.91C784.403 94.7738 787.835 91.5498 792.515 91.5498C797.195 91.5498 800.211 94.7738 800.211 100.91V131.486H819.971V94.5658C819.971 81.4618 812.691 73.9738 800.731 73.9738C792.515 73.9738 786.795 77.5098 781.907 83.1258C778.891 77.3018 773.171 73.9738 765.683 73.9738C757.779 73.9738 752.579 78.2378 748.939 82.9178V75.2218H729.179V131.486ZM830.132 70.1258H850.724V55.5658H830.132V70.1258ZM830.548 131.486H850.308V75.2218H830.548V131.486ZM888.456 132.838C900.832 132.838 908.32 127.638 913.52 119.942L900.312 110.374C897.192 114.014 894.176 116.198 889.496 116.198C882.84 116.198 878.264 110.686 878.264 103.406V103.198C878.264 96.3338 882.944 90.7178 889.288 90.7178C894.072 90.7178 897.088 92.9018 899.792 96.6458L913.208 86.6618C908.424 79.0698 900.728 74.0778 889.184 74.0778C871.4 74.0778 859.024 87.4938 859.024 103.406V103.614C859.024 119.526 871.504 132.838 888.456 132.838ZM429.048 229.734C446.728 229.734 458.48 220.894 458.48 206.022V205.814C458.48 192.19 448.08 186.782 431.336 183.142C421.248 180.854 418.752 179.398 418.752 176.07V175.862C418.752 173.262 421.144 171.182 426.032 171.182C432.48 171.182 439.76 173.678 446.416 178.358L456.504 164.11C448.6 157.766 438.928 154.438 426.552 154.438C409.08 154.438 398.368 164.214 398.368 177.734V177.942C398.368 192.918 410.328 197.286 425.824 200.822C435.704 203.11 438.096 204.774 438.096 207.79V207.998C438.096 211.118 435.184 212.99 429.776 212.99C421.352 212.99 413.344 209.974 406.168 204.254L394.936 217.67C403.88 225.678 416.152 229.734 429.048 229.734ZM495.852 229.838C513.948 229.838 527.052 216.422 527.052 200.406V200.198C527.052 184.182 514.052 170.974 496.06 170.974C477.964 170.974 464.86 184.39 464.86 200.406V200.614C464.86 216.63 477.86 229.838 495.852 229.838ZM496.06 213.094C489.092 213.094 484.1 207.27 484.1 200.406V200.198C484.1 193.438 488.676 187.718 495.852 187.718C502.82 187.718 507.812 193.542 507.812 200.406V200.614C507.812 207.374 503.236 213.094 496.06 213.094ZM535.814 228.486H555.574V152.566H535.814V228.486ZM585.297 229.734C593.305 229.734 598.505 225.47 602.145 220.79V228.486H621.905V172.222H602.145V202.694C602.145 208.83 598.609 212.158 593.929 212.158C589.145 212.158 585.921 208.83 585.921 202.694V172.222H566.161V209.038C566.161 221.83 573.337 229.734 585.297 229.734ZM654.852 229.63C660.364 229.63 665.044 228.382 668.58 226.406V210.91C666.188 212.054 663.692 212.782 661.092 212.782C657.452 212.782 655.684 211.118 655.684 207.166V188.134H668.788V172.222H655.684V157.974H635.924V172.222H629.268V188.134H635.924V211.014C635.924 224.43 642.996 229.63 654.852 229.63ZM677.281 167.126H697.873V152.566H677.281V167.126ZM677.697 228.486H697.457V172.222H677.697V228.486ZM737.164 229.838C755.26 229.838 768.364 216.422 768.364 200.406V200.198C768.364 184.182 755.364 170.974 737.372 170.974C719.276 170.974 706.172 184.39 706.172 200.406V200.614C706.172 216.63 719.172 229.838 737.164 229.838ZM737.372 213.094C730.404 213.094 725.412 207.27 725.412 200.406V200.198C725.412 193.438 729.988 187.718 737.164 187.718C744.132 187.718 749.124 193.542 749.124 200.406V200.614C749.124 207.374 744.548 213.094 737.372 213.094ZM776.71 228.486H796.47V198.014C796.47 191.878 800.006 188.55 804.79 188.55C809.47 188.55 812.694 191.878 812.694 198.014V228.486H832.454V191.67C832.454 178.878 825.278 170.974 813.318 170.974C805.31 170.974 800.11 175.446 796.47 180.126V172.222H776.71V228.486ZM864.984 229.734C878.712 229.734 887.968 223.286 887.968 210.91V210.702C887.968 199.782 879.128 195.934 868 192.814C862.072 191.046 858.848 190.006 858.848 187.822V187.614C858.848 186.054 860.408 184.91 863.424 184.91C867.896 184.91 874.24 186.886 880.064 190.11L886.824 177.63C880.376 173.47 871.848 171.078 863.632 171.078C850.632 171.078 841.064 177.734 841.064 189.694V189.902C841.064 201.238 849.904 204.982 861.032 207.894C866.96 209.558 870.08 210.494 870.08 212.678V212.886C870.08 214.862 868.52 215.902 865.088 215.902C859.264 215.902 852.192 213.718 845.744 209.454L838.36 221.414C846.16 227.03 855.52 229.734 864.984 229.734Z" fill="white"/>
</g>
<defs>
<clipPath id="clip0">
<rect width="934" height="280" fill="white"/>
</clipPath>
</defs>
</svg>
