<svg width="53" height="53" viewBox="0 0 53 53" fill="none" xmlns="http://www.w3.org/2000/svg">
<path d="M48.5837 37.3651V43.9901C48.5861 44.6051 48.4602 45.2138 48.2138 45.7774C47.9674 46.3409 47.606 46.8467 47.1528 47.2625C46.6996 47.6783 46.1646 47.9948 45.582 48.1919C44.9994 48.3889 44.382 48.4621 43.7695 48.4067C36.9741 47.6683 30.4466 45.3463 24.7116 41.6271C19.3759 38.2366 14.8521 33.7129 11.4616 28.3771C7.72944 22.616 5.40686 16.0568 4.68199 9.23088C4.6268 8.62021 4.69938 8.00473 4.89509 7.42364C5.09081 6.84255 5.40537 6.30857 5.81876 5.85571C6.23215 5.40286 6.73531 5.04103 7.29619 4.79329C7.85708 4.54554 8.46341 4.4173 9.07657 4.41672H15.7016C16.7733 4.40617 17.8123 4.78568 18.6249 5.48452C19.4375 6.18336 19.9682 7.15383 20.1182 8.21505C20.3979 10.3352 20.9164 12.4169 21.6641 14.4205C21.9612 15.2109 22.0255 16.0699 21.8494 16.8957C21.6732 17.7216 21.2641 18.4796 20.6703 19.0801L17.8657 21.8846C21.0094 27.4133 25.5871 31.991 31.1157 35.1346L33.9203 32.3301C34.5207 31.7363 35.2788 31.3271 36.1046 31.151C36.9305 30.9749 37.7895 31.0392 38.5799 31.3363C40.5835 32.0839 42.6652 32.6025 44.7853 32.8821C45.8581 33.0335 46.8377 33.5738 47.5381 34.4004C48.2384 35.2269 48.6105 36.282 48.5837 37.3651Z" stroke="#00BFE9" stroke-width="4" stroke-linecap="round" stroke-linejoin="round"/>
</svg>
