<svg width="96" height="96" viewBox="0 0 96 96" fill="none" xmlns="http://www.w3.org/2000/svg">
<path d="M75 7.5H21C20.1705 7.5 19.5 8.1705 19.5 9V33H22.5H73.5H76.5V9C76.5 8.1705 75.8295 7.5 75 7.5Z" fill="#00BFE9"/>
<path d="M93 85.5H88.6995L89.919 75.7425C89.973 75.3105 90 74.8755 90 74.439V62.0595C90 61.6245 89.973 61.188 89.919 60.7575L88.872 52.3785C88.584 50.073 87.5205 47.8995 85.878 46.2555L82.5 42.879V3C82.5 2.172 81.828 1.5 81 1.5H15C14.172 1.5 13.5 2.172 13.5 3V42.879L10.1235 46.2555C8.481 47.898 7.4175 50.0715 7.1295 52.3785L6.0825 60.7575C6.027 61.1895 6 61.6245 6 62.061V74.4405C6 74.8755 6.027 75.312 6.081 75.7425L7.3005 85.5H3C2.172 85.5 1.5 86.172 1.5 87V93C1.5 93.828 2.172 94.5 3 94.5H24C24.828 94.5 25.5 93.828 25.5 93V87C25.5 86.172 24.828 85.5 24 85.5H21V80.7435C21 80.343 21.156 79.965 21.4395 79.6815L33.129 67.992C33.282 67.839 33.405 67.668 33.534 67.5H62.4675C62.5965 67.668 62.7195 67.8405 62.8725 67.992L74.562 79.6815C74.844 79.965 75 80.343 75 80.7435V85.5H72C71.172 85.5 70.5 86.172 70.5 87V93C70.5 93.828 71.172 94.5 72 94.5H93C93.828 94.5 94.5 93.828 94.5 93V87C94.5 86.172 93.828 85.5 93 85.5ZM79.5 4.5V31.5H16.5V4.5H79.5ZM16.5 34.5H79.5V39.879L76.992 37.371C76.1085 36.4875 74.9325 36 73.6815 36C72.3315 36 71.1225 36.5835 70.2675 37.5H25.7325C24.8775 36.5835 23.6685 36 22.3185 36C21.0675 36 19.8915 36.4875 19.008 37.371L16.5 39.879V34.5ZM74.589 66.468L72 63.879V58.5H78V58.584C78 59.2785 77.8365 59.9745 77.5245 60.597L74.589 66.468ZM66.1815 60C64.95 60 63.837 60.4875 63 61.2675V58.5H69V60.966C68.19 60.3495 67.2165 60 66.1815 60ZM21.411 66.468L18.4755 60.597C18.1635 59.9745 18 59.2785 18 58.584V58.5H24V63.879L21.411 66.468ZM42 40.5V46.5H36V40.5H42ZM51 40.5V46.5H45V40.5H51ZM60 40.5V46.5H54V40.5H60ZM69.018 40.5C69.0165 40.5615 69 40.62 69 40.6815C69 40.983 69.0315 41.28 69.087 41.5695C69.045 41.709 69 41.847 69 42V46.5H63V40.5H69.018ZM36 49.5H42V55.5H36V49.5ZM33 55.5H27V49.5H33V55.5ZM45 49.5H51V55.5H45V49.5ZM54 49.5H60V55.5H54V49.5ZM63 49.5H69V55.5H63V49.5ZM33 46.5H27V40.5H33V46.5ZM24 46.5H23.121L24 45.621V46.5ZM19.317 50.304L20.121 49.5H24V55.5H18V53.4855C18 52.3005 18.48 51.141 19.317 50.304ZM27 58.5H33V61.2675C32.163 60.4875 31.05 60 29.8185 60C28.7835 60 27.81 60.3495 27 60.966V58.5ZM36 58.5H42V64.5H36V58.5ZM45 58.5H51V64.5H45V58.5ZM54 58.5H60V64.5H54V58.5ZM72 55.5V49.5H75.879L76.683 50.304C77.52 51.141 78 52.3005 78 53.4855V55.5H72ZM72 46.5V45.621L72.879 46.5H72ZM22.5 91.5H4.5V88.5H22.5V91.5ZM19.3185 77.5605C18.468 78.4095 18 79.5405 18 80.7435V85.5H10.3245L9.0585 75.3705C9.0195 75.0615 9 74.7495 9 74.439V62.0595C9 61.749 9.0195 61.437 9.0585 61.1295L10.1055 52.7505C10.311 51.1035 11.0715 49.551 12.2445 48.3765L16.059 44.562C16.0605 44.5605 16.062 44.559 16.0635 44.5575L21.1305 39.4905C21.447 39.1755 21.8685 39 22.3185 39C23.2455 39 24 39.7545 24 40.6815C24 41.1315 23.8245 41.553 23.508 41.871L18.4395 46.9395C18.4395 46.9395 18.4395 46.9395 18.438 46.941L17.196 48.183C15.78 49.599 15 51.4815 15 53.4855V58.584C15 59.742 15.2745 60.9015 15.792 61.938L18.573 67.5H16.5C15.672 67.5 15 68.172 15 69C15 69.828 15.672 70.5 16.5 70.5H21C21.015 70.5 21.03 70.491 21.045 70.491C21.1395 70.488 21.2295 70.4565 21.324 70.4355C21.4245 70.413 21.525 70.398 21.618 70.356C21.6345 70.3485 21.654 70.35 21.6705 70.3425C21.744 70.3065 21.792 70.2435 21.8565 70.197C21.924 70.149 22.002 70.119 22.0605 70.0605L26.5605 65.5605C26.5605 65.5605 26.5605 65.5605 26.562 65.559L28.6305 63.4905C28.947 63.1755 29.3685 63 29.8185 63C30.7455 63 31.5 63.7545 31.5 64.6815C31.5 65.1315 31.3245 65.553 31.008 65.871L19.3185 77.5605ZM76.6815 77.5605L64.992 65.871C64.6755 65.553 64.5 65.1315 64.5 64.6815C64.5 63.7545 65.2545 63 66.1815 63C66.6315 63 67.053 63.1755 67.371 63.492L69.4395 65.5605C69.4395 65.5605 69.4395 65.5605 69.441 65.562L73.941 70.062C73.9995 70.1205 74.0775 70.1505 74.145 70.1985C74.2095 70.245 74.2575 70.3065 74.331 70.344C74.3475 70.353 74.367 70.35 74.3835 70.3575C74.4765 70.3995 74.577 70.4145 74.6775 70.437C74.772 70.458 74.862 70.4895 74.9565 70.4925C74.97 70.491 74.985 70.5 75 70.5H79.5C80.328 70.5 81 69.828 81 69C81 68.172 80.328 67.5 79.5 67.5H77.427L80.208 61.938C80.7255 60.9015 81 59.742 81 58.584V53.4855C81 51.483 80.22 49.599 78.804 48.183L77.562 46.941C77.562 46.941 77.562 46.941 77.5605 46.9395L72.492 41.871C72.1755 41.553 72 41.1315 72 40.6815C72 39.7545 72.7545 39 73.6815 39C74.1315 39 74.553 39.1755 74.871 39.492L79.938 44.559C79.9395 44.5605 79.941 44.562 79.9425 44.5635L83.757 48.378C84.93 49.551 85.6905 51.105 85.896 52.752L86.943 61.131C86.9805 61.4385 87 61.7505 87 62.061V74.4405C87 74.751 86.9805 75.063 86.9415 75.3705L85.6755 85.5H78V80.7435C78 79.5405 77.532 78.4095 76.6815 77.5605ZM91.5 91.5H73.5V88.5H91.5V91.5Z" fill="#3E3E3E"/>
<path d="M27 16.5H54C54.828 16.5 55.5 15.828 55.5 15C55.5 14.172 54.828 13.5 54 13.5H27C26.172 13.5 25.5 14.172 25.5 15C25.5 15.828 26.172 16.5 27 16.5Z" fill="#3E3E3E"/>
<path d="M27 28.5H45C45.828 28.5 46.5 27.828 46.5 27C46.5 26.172 45.828 25.5 45 25.5H27C26.172 25.5 25.5 26.172 25.5 27C25.5 27.828 26.172 28.5 27 28.5Z" fill="#3E3E3E"/>
<path d="M69 25.5H51C50.172 25.5 49.5 26.172 49.5 27C49.5 27.828 50.172 28.5 51 28.5H69C69.828 28.5 70.5 27.828 70.5 27C70.5 26.172 69.828 25.5 69 25.5Z" fill="#3E3E3E"/>
<path d="M60 16.5H69C69.828 16.5 70.5 15.828 70.5 15C70.5 14.172 69.828 13.5 69 13.5H60C59.172 13.5 58.5 14.172 58.5 15C58.5 15.828 59.172 16.5 60 16.5Z" fill="#3E3E3E"/>
<path d="M27 22.5H69C69.828 22.5 70.5 21.828 70.5 21C70.5 20.172 69.828 19.5 69 19.5H27C26.172 19.5 25.5 20.172 25.5 21C25.5 21.828 26.172 22.5 27 22.5Z" fill="#3E3E3E"/>
</svg>
