<svg width="112" height="112" viewBox="0 0 112 112" fill="none" xmlns="http://www.w3.org/2000/svg">
<g clip-path="url(#clip0)">
<path d="M57.0718 57.5167C59.3433 57.5167 61.5186 58.1887 63.3823 59.3717V29.5167C63.3823 28.5489 62.6001 27.7667 61.6323 27.7667H51.1323C50.1646 27.7667 49.3823 28.5489 49.3823 29.5167V59.2422C51.7186 58.1432 54.3191 57.5167 57.0718 57.5167Z" fill="#00BFE9"/>
<path d="M69.4723 63.8744H69.5056C72.7011 60.1469 77.3858 57.7512 82.6323 57.5534V38.2667C82.6323 37.2989 81.8501 36.5167 80.8823 36.5167H70.3823C69.4146 36.5167 68.6323 37.2989 68.6323 38.2667V63.4352C68.9158 63.5752 69.2046 63.7099 69.4723 63.8744Z" fill="#00BFE9"/>
<path d="M30.8218 57.5167C34.7646 57.5167 38.4448 59.4872 40.6323 62.7667C41.2448 62.9189 41.8293 63.1324 42.3823 63.3967L43.6878 63.4194C43.8296 63.2654 43.9871 63.1289 44.1323 62.9819V38.2667C44.1323 37.2989 43.3501 36.5167 42.3823 36.5167H31.8823C30.9146 36.5167 30.1323 37.2989 30.1323 38.2667V57.5517C30.3633 57.5429 30.5891 57.5167 30.8218 57.5167Z" fill="#00BFE9"/>
<path d="M93.1323 62.7667C97.2466 63.7957 100.132 67.4917 100.132 71.7319V73.2667H101.882V29.5167C101.882 28.5489 101.1 27.7667 100.132 27.7667H89.6323C88.6646 27.7667 87.8823 28.5489 87.8823 29.5167V58.4512C89.9876 59.3349 91.8286 60.8119 93.1323 62.7667Z" fill="#00BFE9"/>
<path d="M12.8073 73.2667C13.7331 66.3892 18.4983 60.7367 24.8823 58.5282V29.5167C24.8823 28.5489 24.1001 27.7667 23.1323 27.7667H12.6323C11.6646 27.7667 10.8823 28.5489 10.8823 29.5167V73.2667H12.8073Z" fill="#00BFE9"/>
<path d="M17.8823 20.7667C19.2263 20.7667 20.4391 20.2452 21.3683 19.4122L31.9646 25.1924C31.9226 25.4619 31.8823 25.7349 31.8823 26.0167C31.8823 28.9112 34.2378 31.2667 37.1323 31.2667C40.0268 31.2667 42.3823 28.9112 42.3823 26.0167C42.3823 25.7349 42.3421 25.4619 42.2983 25.1924L52.8946 19.4122C53.8256 20.2452 55.0383 20.7667 56.3823 20.7667C57.7718 20.7667 59.0283 20.2154 59.9681 19.3317L70.4523 25.3237C70.4226 25.5512 70.3823 25.7787 70.3823 26.0167C70.3823 28.9112 72.7378 31.2667 75.6323 31.2667C78.5268 31.2667 80.8823 28.9112 80.8823 26.0167C80.8823 25.7787 80.8421 25.5512 80.8123 25.3219L91.2966 19.3299C92.2363 20.2154 93.4928 20.7667 94.8823 20.7667C97.7768 20.7667 100.132 18.4112 100.132 15.5167C100.132 12.6222 97.7768 10.2667 94.8823 10.2667C91.9878 10.2667 89.6323 12.6222 89.6323 15.5167C89.6323 15.7547 89.6726 15.9822 89.7023 16.2114L79.2181 22.2017C78.2783 21.3179 77.0218 20.7667 75.6323 20.7667C74.2428 20.7667 72.9863 21.3179 72.0466 22.2017L61.5623 16.2114C61.5921 15.9822 61.6323 15.7547 61.6323 15.5167C61.6323 12.6222 59.2768 10.2667 56.3823 10.2667C53.4878 10.2667 51.1323 12.6222 51.1323 15.5167C51.1323 15.7984 51.1726 16.0714 51.2163 16.3409L40.6201 22.1212C39.6891 21.2882 38.4763 20.7667 37.1323 20.7667C35.7883 20.7667 34.5756 21.2882 33.6463 22.1212L23.0501 16.3409C23.0921 16.0714 23.1323 15.7984 23.1323 15.5167C23.1323 12.6222 20.7768 10.2667 17.8823 10.2667C14.9878 10.2667 12.6323 12.6222 12.6323 15.5167C12.6323 18.4112 14.9878 20.7667 17.8823 20.7667ZM94.8823 13.7667C95.8466 13.7667 96.6323 14.5524 96.6323 15.5167C96.6323 16.4809 95.8466 17.2667 94.8823 17.2667C93.9181 17.2667 93.1323 16.4809 93.1323 15.5167C93.1323 14.5524 93.9181 13.7667 94.8823 13.7667ZM75.6323 24.2667C76.5966 24.2667 77.3823 25.0524 77.3823 26.0167C77.3823 26.9809 76.5966 27.7667 75.6323 27.7667C74.6681 27.7667 73.8823 26.9809 73.8823 26.0167C73.8823 25.0524 74.6681 24.2667 75.6323 24.2667ZM56.3823 13.7667C57.3466 13.7667 58.1323 14.5524 58.1323 15.5167C58.1323 16.4809 57.3466 17.2667 56.3823 17.2667C55.4181 17.2667 54.6323 16.4809 54.6323 15.5167C54.6323 14.5524 55.4181 13.7667 56.3823 13.7667ZM37.1323 24.2667C38.0966 24.2667 38.8823 25.0524 38.8823 26.0167C38.8823 26.9809 38.0966 27.7667 37.1323 27.7667C36.1681 27.7667 35.3823 26.9809 35.3823 26.0167C35.3823 25.0524 36.1681 24.2667 37.1323 24.2667ZM17.8823 13.7667C18.8466 13.7667 19.6323 14.5524 19.6323 15.5167C19.6323 16.4809 18.8466 17.2667 17.8823 17.2667C16.9181 17.2667 16.1323 16.4809 16.1323 15.5167C16.1323 14.5524 16.9181 13.7667 17.8823 13.7667Z" fill="#3E3E3E"/>
<path d="M110.564 116.535L108.823 110.442C107.558 106.013 103.965 102.7 99.4481 101.797L89.6323 99.8317V99.5167C89.6323 99.4712 89.6096 99.4327 89.6061 99.3889C92.8576 97.5112 95.2796 94.3682 96.2053 90.6337C99.4341 90.0107 101.882 87.1739 101.882 83.7667V71.7319C101.882 66.9054 98.7586 62.6897 94.2068 61.2529C91.6588 57.8054 87.6373 55.7667 83.3236 55.7667C77.9598 55.7667 72.8761 57.9384 69.1381 61.7324C68.7513 61.5592 68.3681 61.3824 67.9568 61.2529C65.4088 57.8054 61.3873 55.7667 57.0736 55.7667C51.5261 55.7667 46.5036 58.0487 42.8863 61.7167C42.5013 61.5434 42.1111 61.3789 41.7086 61.2512C39.1588 57.8054 35.1373 55.7667 30.8236 55.7667C19.8266 55.7667 10.8823 64.7109 10.8823 75.7079V83.7667C10.8823 87.1739 13.3306 90.0107 16.5593 90.6337C17.4868 94.3682 19.9071 97.5112 23.1586 99.3889C23.1551 99.4327 23.1323 99.4712 23.1323 99.5167V99.8317L13.3183 101.795C8.79982 102.698 5.20707 106.011 3.94182 110.44L2.20057 116.534C2.05007 117.062 2.15507 117.629 2.48582 118.068C2.81657 118.508 3.33282 118.767 3.88232 118.767H30.1323H82.6323H108.882C109.432 118.767 109.948 118.509 110.279 118.07C110.61 117.631 110.716 117.064 110.564 116.535ZM82.6323 97.7667C77.7393 97.7667 73.5306 94.3139 72.4421 89.6239C74.3583 88.3744 75.6323 86.2202 75.6323 83.7667V79.2517C77.4768 78.5289 79.1831 77.4404 80.5813 76.0422L81.0468 75.5767L81.2323 75.7167C84.6781 78.3014 88.8483 79.8624 93.1323 80.1984V87.2667C93.1323 93.0574 88.4231 97.7667 82.6323 97.7667ZM75.6323 99.8317L69.5073 101.057L63.3823 99.8317V99.5167C63.3823 99.4712 63.3596 99.4327 63.3561 99.3889C66.1718 97.7614 68.3646 95.1872 69.5038 92.0984C70.6501 95.1942 72.8568 97.7579 75.6586 99.3802C75.6568 99.4274 75.6323 99.4677 75.6323 99.5167V99.8317ZM43.2591 101.057L37.1323 99.8317V99.5167C37.1323 99.4677 37.1078 99.4274 37.1043 99.3802C39.9061 97.7579 42.1128 95.1942 43.2591 92.0984C44.4001 95.1854 46.5911 97.7614 49.4068 99.3889C49.4051 99.4327 49.3823 99.4712 49.3823 99.5167V99.8317L43.2591 101.057ZM42.3823 86.7802C41.3411 86.1729 40.6323 85.0564 40.6323 83.7667C40.6323 82.4769 41.3411 81.3604 42.3823 80.7532V86.7802ZM45.8823 87.2667V80.1617C49.0726 79.7784 52.0248 78.3487 54.3313 76.0422L54.7968 75.5767L54.9823 75.7167C58.4281 78.3014 62.5983 79.8624 66.8823 80.1984V87.2667C66.8823 93.0574 62.1731 97.7667 56.3823 97.7667C50.5916 97.7667 45.8823 93.0574 45.8823 87.2667ZM72.1323 83.7667C72.1323 85.0564 71.4236 86.1729 70.3823 86.7802V80.7532C71.4236 81.3604 72.1323 82.4769 72.1323 83.7667ZM96.6323 86.7802V80.7532C97.6736 81.3604 98.3823 82.4769 98.3823 83.7667C98.3823 85.0564 97.6736 86.1729 96.6323 86.7802ZM83.3236 59.2667C86.6871 59.2667 89.8108 60.9379 91.6763 63.7379C91.9178 64.1002 92.2853 64.3592 92.7071 64.4659C96.0496 65.3007 98.3823 68.2879 98.3823 71.7319V77.7397C97.3481 77.1377 96.1633 76.7667 94.8823 76.7667C90.7453 76.7667 86.6433 75.3999 83.3323 72.9167L81.9323 71.8667C81.2358 71.3434 80.2611 71.4134 79.6451 72.0294L78.1068 73.5677C77.3788 74.2957 76.5353 74.9047 75.6323 75.3999V71.7319C75.6323 68.5872 74.2901 65.7172 72.1061 63.6907C75.1371 60.8609 79.1323 59.2667 83.3236 59.2667ZM57.0736 59.2667C60.4371 59.2667 63.5608 60.9379 65.4263 63.7379C65.6678 64.1002 66.0353 64.3592 66.4571 64.4659C69.7996 65.3007 72.1323 68.2879 72.1323 71.7319V77.7397C71.0981 77.1377 69.9133 76.7667 68.6323 76.7667C64.4953 76.7667 60.3933 75.3999 57.0823 72.9167L55.6823 71.8667C54.9858 71.3434 54.0093 71.4134 53.3951 72.0294L51.8568 73.5677C49.7936 75.6309 47.0496 76.7667 44.1323 76.7667C42.8513 76.7667 41.6666 77.1377 40.6323 77.7397V75.7062C40.6323 66.6412 48.0068 59.2667 57.0736 59.2667ZM30.8236 59.2667C34.1871 59.2667 37.3108 60.9379 39.1763 63.7379C39.4178 64.1002 39.7853 64.3592 40.2088 64.4659C40.3208 64.4939 40.4223 64.5499 40.5326 64.5832C38.3871 67.7612 37.1323 71.5902 37.1323 75.7079V76.0247C34.8661 75.3789 32.7171 74.3307 30.8323 72.9167L29.4323 71.8667C28.7358 71.3434 27.7593 71.4134 27.1451 72.0294L25.6068 73.5677C23.5436 75.6309 20.7996 76.7667 17.8823 76.7667C16.6013 76.7667 15.4166 77.1377 14.3823 77.7397V75.7062C14.3823 66.6412 21.7568 59.2667 30.8236 59.2667ZM14.3823 83.7667C14.3823 82.4769 15.0911 81.3604 16.1323 80.7532V86.7802C15.0911 86.1729 14.3823 85.0564 14.3823 83.7667ZM19.6323 87.2667V80.1617C22.8226 79.7784 25.7748 78.3487 28.0813 76.0422L28.5468 75.5767L28.7323 75.7167C31.2208 77.5839 34.1066 78.8894 37.1323 79.6104V83.7667C37.1323 86.2202 38.4063 88.3744 40.3226 89.6239C39.2341 94.3139 35.0253 97.7667 30.1323 97.7667C24.3416 97.7667 19.6323 93.0574 19.6323 87.2667ZM7.30707 111.403C8.21182 108.239 10.7773 105.871 14.0043 105.227L25.2271 102.982C26.0443 102.819 26.6323 102.101 26.6323 101.267V100.806C27.7541 101.097 28.9213 101.267 30.1323 101.267C31.3363 101.267 32.5071 101.102 33.6323 100.808V101.267C33.6323 102.101 34.2203 102.819 35.0393 102.982L35.9441 103.162C33.1878 104.716 31.0931 107.285 30.1918 110.44L28.8128 115.267H6.20282L7.30707 111.403ZM71.7491 115.267L70.3298 109.591C70.0953 108.653 69.1416 108.083 68.2071 108.317C67.2691 108.552 66.7003 109.502 66.9331 110.44L68.1406 115.267H44.6241L45.8298 110.442C46.0643 109.504 45.4938 108.554 44.5558 108.319C43.6231 108.085 42.6676 108.655 42.4331 109.593L41.0156 115.267H32.4528L33.5571 111.403C34.4618 108.239 37.0273 105.871 40.2543 105.227L51.4771 102.982C52.2943 102.819 52.8823 102.101 52.8823 101.267V100.806C54.0041 101.097 55.1713 101.267 56.3823 101.267C57.5933 101.267 58.7606 101.097 59.8823 100.806V101.267C59.8823 102.101 60.4703 102.819 61.2893 102.982L72.5121 105.227C75.7391 105.873 78.3046 108.239 79.2093 111.403L80.3118 115.267H71.7491ZM83.9518 115.267L82.5728 110.442C81.6716 107.287 79.5768 104.719 76.8206 103.164L77.7253 102.983C78.5443 102.819 79.1323 102.101 79.1323 101.267V100.808C80.2576 101.102 81.4283 101.267 82.6323 101.267C83.8433 101.267 85.0106 101.097 86.1323 100.806V101.267C86.1323 102.101 86.7203 102.819 87.5393 102.982L98.7621 105.227C101.989 105.873 104.555 108.239 105.459 111.403L106.562 115.267H83.9518Z" fill="#3E3E3E"/>
</g>
<defs>
<clipPath id="clip0">
<rect width="112" height="112" fill="white"/>
</clipPath>
</defs>
</svg>
