<svg width="97" height="97" viewBox="0 0 97 97" fill="none" xmlns="http://www.w3.org/2000/svg">
<path d="M24.25 60.625H15.1562C14.3196 60.625 13.6406 59.946 13.6406 59.1094V50.0156C13.6406 49.179 14.3196 48.5 15.1562 48.5H24.25C25.0866 48.5 25.7656 49.179 25.7656 50.0156V59.1094C25.7656 59.946 25.0866 60.625 24.25 60.625Z" fill="#00BFE9"/>
<path d="M24.25 75.7812H15.1562C14.3196 75.7812 13.6406 75.1023 13.6406 74.2656V65.1719C13.6406 64.3353 14.3196 63.6562 15.1562 63.6562H24.25C25.0866 63.6562 25.7656 64.3353 25.7656 65.1719V74.2656C25.7656 75.1023 25.0866 75.7812 24.25 75.7812Z" fill="#00BFE9"/>
<path d="M66.6875 46.9844H60.625C59.7869 46.9844 59.1094 46.3069 59.1094 45.4688V39.4062C59.1094 38.5681 59.7869 37.8906 60.625 37.8906H66.6875C67.5256 37.8906 68.2031 38.5681 68.2031 39.4062V45.4688C68.2031 46.3069 67.5256 46.9844 66.6875 46.9844Z" fill="#00BFE9"/>
<path d="M14.0846 55.6341L17.1158 58.6653C17.4114 58.9609 17.7994 59.1094 18.1874 59.1094C18.5754 59.1094 18.9634 58.9609 19.2589 58.6653L26.8371 51.0872C27.4297 50.4946 27.4297 49.5367 26.8371 48.9441C26.2445 48.3515 25.2866 48.3515 24.694 48.9441L18.1874 55.4507L16.2277 53.491C15.6351 52.8984 14.6772 52.8984 14.0846 53.491C13.492 54.0836 13.492 55.0415 14.0846 55.6341Z" fill="#3E3E3E"/>
<path d="M24.694 64.1003L18.1874 70.6069L16.2277 68.6472C15.6351 68.0546 14.6772 68.0546 14.0846 68.6472C13.492 69.2398 13.492 70.1977 14.0846 70.7903L17.1158 73.8216C17.4114 74.1171 17.7994 74.2656 18.1874 74.2656C18.5754 74.2656 18.9634 74.1171 19.2589 73.8216L26.8371 66.2434C27.4297 65.6508 27.4297 64.693 26.8371 64.1003C26.2445 63.5077 25.2866 63.5077 24.694 64.1003Z" fill="#3E3E3E"/>
<path d="M31.8281 53.0469H42.4375C43.2741 53.0469 43.9531 52.3679 43.9531 51.5312C43.9531 50.6946 43.2741 50.0156 42.4375 50.0156H31.8281C30.9915 50.0156 30.3125 50.6946 30.3125 51.5312C30.3125 52.3679 30.9915 53.0469 31.8281 53.0469Z" fill="#3E3E3E"/>
<path d="M31.8281 59.1094H42.4375C43.2741 59.1094 43.9531 58.4304 43.9531 57.5938C43.9531 56.7571 43.2741 56.0781 42.4375 56.0781H31.8281C30.9915 56.0781 30.3125 56.7571 30.3125 57.5938C30.3125 58.4304 30.9915 59.1094 31.8281 59.1094Z" fill="#3E3E3E"/>
<path d="M31.8281 68.2031H42.4375C43.2741 68.2031 43.9531 67.5241 43.9531 66.6875C43.9531 65.8509 43.2741 65.1719 42.4375 65.1719H31.8281C30.9915 65.1719 30.3125 65.8509 30.3125 66.6875C30.3125 67.5241 30.9915 68.2031 31.8281 68.2031Z" fill="#3E3E3E"/>
<path d="M31.8281 74.2656H42.4375C43.2741 74.2656 43.9531 73.5866 43.9531 72.75C43.9531 71.9134 43.2741 71.2344 42.4375 71.2344H31.8281C30.9915 71.2344 30.3125 71.9134 30.3125 72.75C30.3125 73.5866 30.9915 74.2656 31.8281 74.2656Z" fill="#3E3E3E"/>
<path d="M93.9688 56.0781C94.8054 56.0781 95.4844 55.3991 95.4844 54.5625V3.03125C95.4844 2.19463 94.8054 1.51562 93.9688 1.51562H22.7344C21.8978 1.51562 21.2188 2.19463 21.2188 3.03125V25.7656C21.2188 25.8247 21.246 25.8747 21.2521 25.9308C20.4352 26.7629 19.7334 27.7147 19.2196 28.7969H15.1562C14.3196 28.7969 13.6406 29.4759 13.6406 30.3125V31.8281H9.09375C4.91517 31.8281 1.51562 35.2277 1.51562 39.4062V87.9062C1.51562 92.0848 4.91517 95.4844 9.09375 95.4844H48.5C52.6786 95.4844 56.0781 92.0848 56.0781 87.9062V83.3594H89.4219C92.7653 83.3594 95.4844 80.6403 95.4844 77.2969V76.3329C95.4844 70.178 90.4783 65.1719 84.3233 65.1719C81.3421 65.1719 78.5397 66.3328 76.4315 68.4411L74.449 70.4235C73.9261 70.9464 73.2305 71.2344 72.4908 71.2344C70.9616 71.2344 69.7188 69.9916 69.7188 68.4623V66.6875C69.7188 65.8509 69.0397 65.1719 68.2031 65.1719C67.3665 65.1719 66.6875 65.8509 66.6875 66.6875V68.4623C66.6875 69.4717 66.9694 70.4068 67.4241 71.2344H56.0781V56.0781H93.9688ZM92.4531 53.0469H56.0781V39.4062C56.0781 35.7475 53.4697 32.686 50.0156 31.9812V4.54688H63.6562V12.125C63.6562 12.9616 64.3353 13.6406 65.1719 13.6406H83.3594C84.196 13.6406 84.875 12.9616 84.875 12.125V4.54688H92.4531V53.0469ZM75.7812 74.2656V80.3281H59.1094V74.2656H75.7812ZM56.0781 80.1947L49.3169 77.2969L56.0781 74.399V80.1947ZM15.1562 43.9531H42.4375C43.2741 43.9531 43.9531 43.2741 43.9531 42.4375V40.9219H46.9844V74.9992L44.8716 75.904C44.3138 76.142 43.9531 76.6906 43.9531 77.2969C43.9531 77.9031 44.3138 78.4518 44.8716 78.6897L46.9844 79.5946V86.3906H10.6094V40.9219H13.6406V42.4375C13.6406 43.2741 14.3196 43.9531 15.1562 43.9531ZM50.0156 73.6988V39.4062C50.0156 38.5696 49.3366 37.8906 48.5 37.8906H43.9531V34.8594H48.5C51.0068 34.8594 53.0469 36.8994 53.0469 39.4062V72.3999L50.0156 73.6988ZM77.2969 6.0625C76.4603 6.0625 75.7812 6.7415 75.7812 7.57812V10.6094H72.75V7.57812C72.75 6.7415 72.071 6.0625 71.2344 6.0625C70.3978 6.0625 69.7188 6.7415 69.7188 7.57812V10.6094H66.6875V4.54688H81.8438V10.6094H78.8125V7.57812C78.8125 6.7415 78.1335 6.0625 77.2969 6.0625ZM24.25 4.54688H46.9844V31.8281H43.9531V30.3125C43.9531 29.4759 43.2741 28.7969 42.4375 28.7969H38.3741C36.6327 25.1306 32.9103 22.7344 28.7969 22.7344C27.1873 22.7344 25.6444 23.1118 24.25 23.7771V4.54688ZM16.6719 31.8281H20.2321C20.8747 31.8281 21.4461 31.4235 21.6613 30.8187C22.7313 27.7966 25.5989 25.7656 28.7969 25.7656C31.9948 25.7656 34.8624 27.7966 35.9324 30.8187C36.1477 31.4235 36.7206 31.8281 37.3617 31.8281H40.9219V40.9219H16.6719V31.8281ZM48.5 92.4531H9.09375C6.58691 92.4531 4.54688 90.4131 4.54688 87.9062V39.4062C4.54688 36.8994 6.58691 34.8594 9.09375 34.8594H13.6406V37.8906H9.09375C8.25712 37.8906 7.57812 38.5696 7.57812 39.4062V87.9062C7.57812 88.7429 8.25712 89.4219 9.09375 89.4219H48.5C49.3366 89.4219 50.0156 88.7429 50.0156 87.9062V80.895L53.0469 82.1939V87.9062C53.0469 90.4131 51.0068 92.4531 48.5 92.4531ZM89.4219 80.3281H78.8125V74.2656H89.4219C91.0936 74.2656 92.4531 75.6251 92.4531 77.2969C92.4531 78.9686 91.0936 80.3281 89.4219 80.3281ZM84.3233 68.2031C86.9362 68.2031 89.2385 69.4626 90.7268 71.3844C90.3055 71.2905 89.8705 71.2344 89.4219 71.2344H77.9243L78.5745 70.5842C80.1099 69.0488 82.1514 68.2031 84.3233 68.2031Z" fill="#3E3E3E"/>
<path d="M72.75 37.8906C71.9134 37.8906 71.2344 38.5696 71.2344 39.4062C71.2344 40.2429 71.9134 40.9219 72.75 40.9219H87.9062C88.7429 40.9219 89.4219 40.2429 89.4219 39.4062C89.4219 38.5696 88.7429 37.8906 87.9062 37.8906H72.75Z" fill="#3E3E3E"/>
<path d="M81.8438 43.9531H72.75C71.9134 43.9531 71.2344 44.6321 71.2344 45.4688C71.2344 46.3054 71.9134 46.9844 72.75 46.9844H81.8438C82.6804 46.9844 83.3594 46.3054 83.3594 45.4688C83.3594 44.6321 82.6804 43.9531 81.8438 43.9531Z" fill="#3E3E3E"/>
<path d="M87.9062 46.9844C88.7433 46.9844 89.4219 46.3058 89.4219 45.4688C89.4219 44.6317 88.7433 43.9531 87.9062 43.9531C87.0692 43.9531 86.3906 44.6317 86.3906 45.4688C86.3906 46.3058 87.0692 46.9844 87.9062 46.9844Z" fill="#3E3E3E"/>
</svg>
